<svg id="Camada_1" data-name="Camada 1" xmlns="http://www.w3.org/2000/svg" viewBox="0 0 1120 330"><defs><style>.cls-1{fill:#2563eb;}.cls-2{fill:#fff;}</style></defs><title>logo-dark</title><path class="cls-1" d="M225.94,248.2c-30.65,5-46.53,25.17-45.36,59.5,23.2-16.58,48.86-18.16,75.1-17.13,14.51.55,29.29,1.24,44.32-6.05,14.65-10.12,24.88-24.77,25.14-41.9A1224.75,1224.75,0,0,0,320,86.89C317,64.58,299.9,47.39,278.75,45.28A585.07,585.07,0,0,0,212,44.59c-11.76.09-22.55,6.94-28.19,17.88-8.1,15.21-3.18,24.56,13,25,17.82.49,35.64,0,53.46.49,20.08.61,28.57,10,28.83,31.57s0,44.57,0,66.86c0,55.51,0,55.78-51.25,61.42a10.51,10.51,0,0,0-2.08.42"/><path class="cls-1" d="M151.22,152.1C150,140.78,140.35,132.66,129.68,134a18.61,18.61,0,0,0-7.42,2.59,18.9,18.9,0,0,0-8,9.76,73.85,73.85,0,0,0-1.36,32.4c1,10.45,9.56,18.21,19.44,17.68,9.49.13,17.42-7.63,18.08-17.68A70.75,70.75,0,0,0,151.22,152.1Z"/><path class="cls-1" d="M234,148.25c-2.4-9.51-11.11-15.62-20.28-14.24-9.91.88-17.59,9.54-17.82,20.09a184.48,184.48,0,0,0,.38,20.63,25.69,25.69,0,0,0,.91,6.88V182c6.48,17.06,22.68,19.81,33.83,5.78C238.9,175.15,236.43,161.39,234,148.25Z"/><path class="cls-1" d="M165.93,252c-3.24-9-13.41-3.92-20.47-4.68s-15.23,0-22.81,0c-51.84,0-51.84,0-54.56-54.06,0-24.9.58-49.8,1-74.7.32-20.64,7.71-28.83,27.47-30.41A264.78,264.78,0,0,0,128.93,85c28.84-5.92,43-29.37,36.68-62.67-18.08,21.05-41.34,18.85-64,20a81.2,81.2,0,0,0-15.23,1C47.48,48,30.12,60.27,27.33,90c-1.55,17.61-3,35.29-3.37,53h0L22.6,221.3h0v15.82c.57,28.31,21.63,51.36,48.27,52.83,21.58,1.24,43.23.34,64.8.41a27.15,27.15,0,0,0,23.07-12.1C164.18,270.55,169.11,260.78,165.93,252Z"/><polygon class="cls-2" points="501.99 201.18 476.94 129.63 452.81 129.63 427.57 201.23 403.94 129.63 375.24 129.63 414.13 243.35 438.25 243.35 464.84 166.55 491.08 243.35 515.41 243.35 554.29 129.63 525.6 129.63 501.99 201.18"/><path class="cls-2" d="M652.87,143.64a49.83,49.83,0,0,0-17.16-12.13,58.27,58.27,0,0,0-23.39-4.39,54,54,0,0,0-28.7,7.74,56.89,56.89,0,0,0-20.17,21Q556,169.15,556,186.28a62.61,62.61,0,0,0,7.28,30.1,54.93,54.93,0,0,0,20.48,21.53q13.21,8,30.68,8a61.63,61.63,0,0,0,21.21-3.56,51.71,51.71,0,0,0,16.84-9.82,38.81,38.81,0,0,0,10.4-14.42l-22-10.88a28.63,28.63,0,0,1-10.29,10.67q-6.56,4-15.91,4a31.13,31.13,0,0,1-16.54-4.39A27.4,27.4,0,0,1,587.26,205a33.53,33.53,0,0,1-2.75-10.56H666a25.84,25.84,0,0,0,1.14-5.54,59.34,59.34,0,0,0,.32-6.16,60.15,60.15,0,0,0-3.75-21.43A54.21,54.21,0,0,0,652.87,143.64Zm-55.73,10.45a26.89,26.89,0,0,1,15.18-4.39,26.16,26.16,0,0,1,15.28,4.39A24.54,24.54,0,0,1,636.75,166a25.92,25.92,0,0,1,1.53,7.32H585.06a33.22,33.22,0,0,1,2-6.69A27.17,27.17,0,0,1,597.14,154.09Z"/><path class="cls-2" d="M772.45,135.07a54,54,0,0,0-28.91-7.95,49.77,49.77,0,0,0-23.08,5.13,40.39,40.39,0,0,0-11.65,8.87v-56H681.36V243.35h25.79V230.53a38.26,38.26,0,0,0,13.62,10.52,52.71,52.71,0,0,0,22.56,4.81A55.35,55.35,0,0,0,772.65,238,56.46,56.46,0,0,0,793,216.59a61.34,61.34,0,0,0,7.49-30.1,59.91,59.91,0,0,0-7.59-30.1A58.59,58.59,0,0,0,772.45,135.07Zm-4.37,69.19a31.33,31.33,0,0,1-11.34,12.12,31,31,0,0,1-16.53,4.39,30.19,30.19,0,0,1-27.34-16.51,37.64,37.64,0,0,1-4.06-17.77,37.18,37.18,0,0,1,4.06-17.56,30.19,30.19,0,0,1,27.34-16.51,30.54,30.54,0,0,1,27.87,16.51,36.53,36.53,0,0,1,4.16,17.56A37,37,0,0,1,768.08,204.26Z"/><path class="cls-2" d="M868.31,85.11q-13.09,0-22.77,4.8a34.37,34.37,0,0,0-14.87,13.9q-5.19,9.1-5.2,22.27v3.55h-20v24.46h20v89.26h27.25V154.09h25.16V129.63H852.72v-3.55q0-8.79,5-12.86t14.14-4.08c1,0,2,0,3.22.11a27.93,27.93,0,0,1,3.85.52V86.15c-1.39-.28-3.09-.52-5.09-.73A53.52,53.52,0,0,0,868.31,85.11Z"/><path class="cls-2" d="M961.06,196.31a27.08,27.08,0,0,1-2.91,13,21.14,21.14,0,0,1-8.11,8.47,23.12,23.12,0,0,1-11.85,3,23.68,23.68,0,0,1-12-3,20.4,20.4,0,0,1-8.11-8.36,26.36,26.36,0,0,1-2.81-12.44V129.63H887.86v69.61q0,14,5.2,24.46A39,39,0,0,0,907.82,240q9.57,5.85,22.88,5.86,12.06,0,21-5.23a28.66,28.66,0,0,0,10.82-11.18v13.9H988.3V129.63H961.06Z"/><path class="cls-2" d="M1102.05,147.71A38.52,38.52,0,0,0,1087,132.56a44.47,44.47,0,0,0-22.15-5.44,40.85,40.85,0,0,0-21.11,5.33,29.44,29.44,0,0,0-10.91,11.16v-14H1007V243.35h27.45V176.67a27.14,27.14,0,0,1,2.91-13,20.48,20.48,0,0,1,8.11-8.36,25.53,25.53,0,0,1,23.71,0,20.61,20.61,0,0,1,8.11,8.36,27.14,27.14,0,0,1,2.91,13v66.68h27.24V170.18A45.4,45.4,0,0,0,1102.05,147.71Z"/></svg>